{
    "asset" : {
        "version" : "2.0"
    },

    "scene": 0,
    "scenes" : [
        {
            "nodes" : [ 0 ]
        }
    ],

    "nodes" : [
        {
            "mesh" : 0,
            "translation": [0, 0, 3]
        },
        {
            "name": "square",
            "mesh" : 1
        },
        {
            "name": "cube",
            "mesh" : 2
        }
    ],

    "meshes" : [
        {
            "primitives" : [ {
                "attributes" : {
                    "POSITION" : 1,
                    "COLOR_0": 2
                },
                "indices" : 0
            } ]
        },
        {
            "primitives" : [ {
                "attributes" : {
                    "POSITION" : 3,
                    "COLOR_0": 4,
                    "TEXCOORD_0": 5,
                    "NORMAL": 6
                },
                "indices" : 7
            } ]
        },
        {
            "primitives" : [ {
                "attributes" : {
                    "POSITION" : 8,
                    "COLOR_0": 9,
                    "TEXCOORD_0": 10,
                    "NORMAL": 11
                }
            } ]
        }
    ],

    "buffers" : [
        {
            "name" : "triangle pos and indices",
            "uri" : "data:application/octet-stream;base64,",
            "byteLength" : 44
        },
        {
            "name": "triangle colors",
            "uri" : "data:application/octet-stream;base64,",
            "byteLength" : 36
        },
        {
            "name" : "square data",
            "uri": "data:application/octet-stream;base64,",
            "byteLength": 200
        },
        {
            "name": "cube data",
            "uri": "data:application/octet-stream;base64,",
            "byteLength": 1584
        }
    ],
    "bufferViews" : [
        {
            "buffer" : 0,
            "byteOffset" : 0,
            "byteLength" : 6,
            "target" : 34963
        },
        {
            "buffer" : 0,
            "byteOffset" : 8,
            "byteLength" : 36,
            "target" : 34962
        },
        {
            "buffer" : 1,
            "byteOffset" : 0,
            "byteLength" : 36,
            "target" : 34962
        },
        {
            "buffer": 2,
            "byteOffset": 0,
            "byteLength": 176,
            "byteStride": 44
        },
        {
            "buffer" : 2,
            "byteOffset" : 176,
            "byteLength" : 24
        },
        {
            "buffer": 3,
            "byteOffset": 0,
            "byteLength": 1584,
            "byteStride": 44
        }
    ],
    "accessors" : [
        {
            "bufferView" : 0,
            "byteOffset" : 0,
            "componentType" : 5123,
            "count" : 3,
            "type" : "SCALAR",
            "max" : [ 2 ],
            "min" : [ 0 ]
        },
        {
            "bufferView" : 1,
            "byteOffset" : 0,
            "componentType" : 5126,
            "count" : 3,
            "type" : "VEC3",
            "max" : [ 1.0, 1.0, 0.0 ],
            "min" : [ 0.0, 0.0, 0.0 ]
        },
        {
            "bufferView" : 2,
            "byteOffset" : 0,
            "componentType" : 5126,
            "count" : 3,
            "type" : "VEC3",
            "max" : [ 1.0, 1.0, 0.0 ],
            "min" : [ 0.0, 0.0, 0.0 ]
        },
        {
            "name": "square pos",
            "bufferView" : 3,
            "byteOffset" : 0,
            "componentType" : 5126,
            "count" : 4,
            "type" : "VEC3",
            "max" : [ 1.0, 1.0, 1.0 ],
            "min" : [ 0.0, 0.0, 0.0 ]
        },
        {
            "name": "square colors",
            "bufferView" : 3,
            "byteOffset" : 12,
            "componentType" : 5126,
            "count" : 4,
            "type" : "VEC3",
            "max" : [ 1.0, 1.0, 1.0 ],
            "min" : [ 0.0, 0.0, 0.0 ]
        },
        {
            "name": "square texcoords",
            "bufferView" : 3,
            "byteOffset" : 24,
            "componentType" : 5126,
            "count" : 4,
            "type" : "VEC2",
            "max" : [ 1.0, 1.0 ],
            "min" : [ 0.0, 0.0 ]
        },
        {
            "name": "square normals",
            "bufferView" : 3,
            "byteOffset" : 32,
            "componentType" : 5126,
            "count" : 4,
            "type" : "VEC3",
            "max" : [ 1.0, 1.0, 1.0 ],
            "min" : [ 0.0, 0.0, 0.0 ]
        },
        {
            "name": "square indices",
            "bufferView" : 4,
            "byteOffset" : 0,
            "componentType" : 5125,
            "count" : 6,
            "type" : "SCALAR",
            "max" : [ 3 ],
            "min" : [ 0 ]
        },
        {
            "name": "cube pos",
            "bufferView" : 5,
            "byteOffset" : 0,
            "componentType" : 5126,
            "count" : 36,
            "type" : "VEC3",
            "max" : [ 1.0, 1.0, 1.0 ],
            "min" : [ 0.0, 0.0, 0.0 ]
        },
        {
            "name": "cube colors",
            "bufferView" : 5,
            "byteOffset" : 12,
            "componentType" : 5126,
            "count" : 36,
            "type" : "VEC3",
            "max" : [ 1.0, 1.0, 1.0 ],
            "min" : [ 0.0, 0.0, 0.0 ]
        },
        {
            "name": "cube texcoords",
            "bufferView" : 5,
            "byteOffset" : 24,
            "componentType" : 5126,
            "count" : 36,
            "type" : "VEC2",
            "max" : [ 1.0, 1.0 ],
            "min" : [ 0.0, 0.0 ]
        },
        {
            "name": "cube normals",
            "bufferView" : 5,
            "byteOffset" : 32,
            "componentType" : 5126,
            "count" : 36,
            "type" : "VEC3",
            "max" : [ 1.0, 1.0, 1.0 ],
            "min" : [ 0.0, 0.0, 0.0 ]
        }
    ]
}